<?xml version="1.0" encoding="UTF-8" standalone="no"?>
<svg
	width="71.099884"
	height="71.007446"
	viewBox="0 0 71.099884 71.007446"
	fill="none"
	version="1.1"
	id="svg31"
	sodipodi:docname="wsl_logo_notext.svg"
	inkscape:version="1.3.2 (091e20e, 2023-11-25)"
	xmlns:inkscape="http://www.inkscape.org/namespaces/inkscape"
	xmlns:sodipodi="http://sodipodi.sourceforge.net/DTD/sodipodi-0.dtd"
	xmlns="http://www.w3.org/2000/svg"
	xmlns:svg="http://www.w3.org/2000/svg"
>
	<style>
		path {
			fill: black;
		}
		@media (prefers-color-scheme: dark) {
			path {
				fill: white;
			}
		}
	</style>
	<defs id="defs31" />
	<sodipodi:namedview
		id="namedview31"
		pagecolor="#ffffff"
		bordercolor="#000000"
		borderopacity="0.25"
		inkscape:showpageshadow="2"
		inkscape:pageopacity="0.0"
		inkscape:pagecheckerboard="0"
		inkscape:deskcolor="#d1d1d1"
		inkscape:zoom="3.408934"
		inkscape:cx="101.05798"
		inkscape:cy="40.33519"
		inkscape:window-width="1452"
		inkscape:window-height="1011"
		inkscape:window-x="1970"
		inkscape:window-y="0"
		inkscape:window-maximized="0"
		inkscape:current-layer="svg31"
	/>
	<path
		d="m 26.589807,34.649335 -8.5803,-28.4285099 c -0.2566,-0.85012 0.0742,-1.77506 0.8484,-2.20998 4.7824,-2.68659 10.4871,-3.71933002 14.0304,-4.00477102 1.1011,-0.088708 1.9952,0.806031 1.9952,1.91077102 V 33.143235 c 0,1.1289 -0.9389,2.0597 -2.0485,2.2677 -0.9582,0.1795 -1.9924,0.4589 -2.9181,0.7697 -1.2935,0.4343 -2.9328,-0.2251 -3.3271,-1.5313 z"
		id="path20"
	/>
	<path
		d="m 53.090407,6.2208251 -8.5803,28.4285099 c -0.3943,1.3062 -2.0337,1.9656 -3.3272,1.5313 -0.9257,-0.3108 -1.9598,-0.5902 -2.918,-0.7697 -1.1096,-0.208 -2.0485,-1.1388 -2.0485,-2.2677 V 1.9168451 c 0,-1.10474002 0.894,-1.99947902 1.9952,-1.91077102 3.5432,0.285441 9.2479,1.31818102 14.0303,4.00477102 0.7742,0.43492 1.105,1.35986 0.8485,2.20998 z"
		id="path21"
	/>
	<path
		d="m 65.926407,19.112735 -14.9761,23.0236 c -0.408,0.6272 -1.3447,0.6051 -1.7855,5e-4 -0.9281,-1.2731 -2.1093,-2.5008 -3.4486,-3.5283 -0.5702,-0.4374 -0.8405,-1.1775 -0.6226,-1.8623 l 9.0811,-28.5396099 c 0.4034,-1.2677 1.9115,-1.79811 2.974,-0.99765 3.3856,2.55046 6.2884,5.5627599 8.8351,9.8524599 0.3778,0.6363 0.3461,1.431 -0.0574,2.0513 z"
		id="path22"
	/>
	<path
		d="m 54.303107,50.002935 16.1198,-14.0296 c 0.4424,-0.385 0.6965,-0.9456 0.6758,-1.5317 -0.1673,-4.7304 -1.1993,-8.8524 -2.616,-12.4024 -0.459,-1.1502 -1.9967,-1.2615 -2.6831,-0.2307 l -14.5298,21.8197 c -0.3759,0.5644 -0.4351,1.2794 -0.1861,1.9102 0.5381,1.3637 0.8688,2.505 1.0657,3.6116 0.1772,0.9956 1.3908,1.5168 2.1537,0.8529 z"
		id="path23"
	/>
	<path
		d="m 65.611007,53.621035 -12.7906,5.0387 c -0.7074,0.2787 -1.4759,-0.5521 -1.2485,-1.2776 0.3776,-1.2044 0.6103,-2.4929 0.7408,-3.5924 0.0629,-0.5303 0.3129,-1.0233 0.7215,-1.3672 l 16.0978,-13.5478 c 0.732,-0.616 1.822,-0.0693 1.7059,0.8803 -0.6028,4.9282 -2.3173,9.6042 -4.2509,13.0277 -0.2173,0.3848 -0.5649,0.6763 -0.976,0.8383 z"
		id="path24"
	/>
	<path
		d="m 36.277407,69.330135 -0.0969,1.1411 c -0.0247,0.2914 0.2039,0.5422 0.4963,0.5361 3.6909,-0.0765 8.3447,-0.9959 12.1804,-2.563 0.4647,-0.1899 0.3566,-0.8385 -0.1427,-0.8908 l -5.0412,-0.5284 c -0.1898,-0.0199 -0.3804,0.0155 -0.5529,0.0973 -1.8617,0.8832 -4.4525,1.6268 -6.3456,1.7361 -0.2593,0.0149 -0.4754,0.2127 -0.4974,0.4716 z"
		fill="#2a2a2c"
		id="path25"
	/>
	<path
		d="m 52.402507,66.578235 -5.7401,-0.3585 c -0.5949,-0.0371 -0.8317,-0.7913 -0.3794,-1.1796 1.2366,-1.0618 1.8609,-1.8127 3.2439,-3.5741 0.1109,-0.1414 0.258,-0.2506 0.4256,-0.3156 l 13.5953,-5.2754 c 0.4575,-0.1775 0.8597,0.3359 0.5684,0.7308 -3.6982,5.0124 -7.5547,7.7788 -11.1596,9.8442 -0.1682,0.0964 -0.3607,0.1403 -0.5541,0.1282 z"
		id="path26"
	/>
	<path
		d="m 5.173487,19.112735 14.97602,23.0236 c 0.408,0.6272 1.3448,0.6051 1.7855,5e-4 0.9281,-1.2731 2.1093,-2.5008 3.4486,-3.5283 0.5702,-0.4374 0.8406,-1.1775 0.6227,-1.8623 l -9.0811,-28.5396099 c -0.4034,-1.2677 -1.9115,-1.79811 -2.974,-0.99765 -3.3856,2.55046 -6.28843,5.5627599 -8.83517,9.8524599 -0.37776,0.6363 -0.34604,1.431 0.05745,2.0513 z"
		fill="#2a2a2c"
		id="path27"
	/>
	<path
		d="m 16.796807,50.002935 -16.11985,-14.0296 c -0.442363,-0.385 -0.696508,-0.9456 -0.67578,-1.5317 0.167304,-4.7304 1.19935,-8.8524 2.61598,-12.4024 0.45901,-1.1502 1.99674,-1.2615 2.68317,-0.2307 l 14.52978,21.8197 c 0.3758,0.5644 0.435,1.2794 0.1861,1.9102 -0.5382,1.3637 -0.8688,2.505 -1.0657,3.6116 -0.1772,0.9956 -1.3909,1.5168 -2.1537,0.8529 z"
		id="path28"
	/>
	<path
		d="m 5.488927,53.621035 12.79058,5.0387 c 0.7074,0.2787 1.4759,-0.5521 1.2485,-1.2776 -0.3776,-1.2044 -0.6103,-2.4929 -0.7408,-3.5924 -0.063,-0.5303 -0.313,-1.0233 -0.7216,-1.3672 l -16.09774,-13.5478 c -0.73198,-0.616 -1.821975,-0.0693 -1.705839,0.8803 0.602699,4.9282 2.317259,9.6042 4.250849,13.0277 0.21734,0.3848 0.56485,0.6763 0.97605,0.8383 z"
		id="path29"
	/>
	<path
		d="m 34.822507,69.330135 0.0969,1.1411 c 0.0247,0.2914 -0.204,0.5422 -0.4963,0.5361 -3.691,-0.0765 -8.3448,-0.9959 -12.1804,-2.563 -0.4647,-0.1899 -0.3566,-0.8385 0.1426,-0.8908 l 5.0412,-0.5284 c 0.1898,-0.0199 0.3805,0.0155 0.5529,0.0973 1.8617,0.8832 4.4526,1.6268 6.3457,1.7361 0.2593,0.0149 0.4754,0.2127 0.4974,0.4716 z"
		id="path30"
	/>
	<path
		d="m 18.697407,66.578235 5.7401,-0.3585 c 0.5949,-0.0371 0.8317,-0.7913 0.3794,-1.1796 -1.2366,-1.0618 -1.8609,-1.8127 -3.2439,-3.5741 -0.111,-0.1414 -0.258,-0.2506 -0.4256,-0.3156 l -13.59536,-5.2754 c -0.45744,-0.1775 -0.85967,0.3359 -0.56836,0.7308 3.69822,5.0124 7.55472,7.7788 11.15962,9.8442 0.1682,0.0964 0.3607,0.1403 0.5541,0.1282 z"
		id="path31"
	/>
</svg>
